<?xml version="1.0" standalone="no"?>
<!DOCTYPE svg PUBLIC "-//W3C//DTD SVG 20010904//EN"
 "http://www.w3.org/TR/2001/REC-SVG-20010904/DTD/svg10.dtd">
<svg version="1.0" xmlns="http://www.w3.org/2000/svg"
 width="196.000000pt" height="196.000000pt" viewBox="0 0 196.000000 196.000000"
 preserveAspectRatio="xMidYMid meet">
<metadata>
Created by potrace 1.14, written by Peter Selinger 2001-2017
</metadata>
<g transform="translate(0.000000,196.000000) scale(0.100000,-0.100000)"
fill="#000000" stroke="none">
<path d="M0 1580 c0 -36 4 -50 14 -50 12 0 14 -42 12 -252 l-2 -252 95 -102
c62 -65 102 -100 112 -98 10 3 25 -9 40 -31 27 -39 31 -41 49 -20 27 32 20
215 -9 215 -10 0 -47 -41 -52 -57 -5 -16 -13 -10 -85 67 l-60 65 2 225 c2 124
3 228 3 233 1 4 8 7 16 7 11 0 15 12 15 50 l0 50 -75 0 -75 0 0 -50z"/>
<path d="M1810 1580 c0 -43 3 -50 20 -50 16 0 20 -7 21 -32 0 -18 1 -122 2
-231 l2 -197 -77 -77 c-66 -66 -78 -74 -83 -57 -19 60 -39 67 -55 18 -15 -44
-8 -157 10 -179 16 -19 35 -5 44 30 4 16 11 22 21 18 11 -3 51 30 123 101
l108 106 -2 250 c0 137 3 250 7 250 5 0 9 23 9 50 l0 50 -75 0 -75 0 0 -50z"/>
<path d="M690 1403 c-91 -47 -236 -123 -323 -168 -87 -45 -159 -86 -158 -90 0
-4 57 -33 128 -64 l128 -57 -3 -139 c-2 -77 -5 -159 -6 -183 l-2 -44 164 -106
c90 -59 203 -135 252 -168 l88 -62 108 72 c60 39 174 113 254 165 80 51 147
95 149 97 3 3 2 122 -3 295 l-2 76 144 58 c161 65 157 56 47 109 -27 13 -171
84 -320 156 -148 72 -274 132 -279 133 -9 2 -43 -53 -48 -78 -2 -13 52 -44
237 -134 l240 -117 -105 -41 c-58 -22 -163 -60 -234 -84 -70 -24 -131 -50
-134 -58 -3 -7 0 -22 6 -32 7 -10 12 -26 12 -34 0 -29 26 -25 168 25 79 27
146 50 150 50 4 0 8 -60 10 -133 l3 -132 -88 -56 c-48 -31 -139 -89 -200 -129
-98 -63 -115 -71 -129 -59 -9 7 -25 18 -36 24 -10 5 -91 57 -179 115 l-160
105 2 128 c1 70 5 129 8 132 4 2 65 -19 136 -46 71 -27 135 -47 141 -45 6 2
18 25 27 49 l15 45 -166 63 c-92 34 -193 74 -224 88 l-58 26 203 104 c111 58
212 110 224 115 28 13 28 20 0 73 l-22 42 -165 -86z"/>
</g>
</svg>
